<svg xmlns="http://www.w3.org/2000/svg" width="218.009" height="105.047" viewBox="0 0 218.009 105.047">
  <g id="Group_3" data-name="Group 3" transform="translate(-1211 -697)">
    <g id="Group_2" data-name="Group 2" transform="translate(1211 697)">
      <rect id="Rectangle_1" data-name="Rectangle 1" width="50.434" height="50.434" transform="translate(0 0)" fill="#003c35"/>
      <g id="Group_1" data-name="Group 1" transform="translate(0 50.434)">
        <path id="Path_1" data-name="Path 1" d="M0,95.427v28.209a22.225,22.225,0,0,0,22.225,22.225H50.434V95.427Z" transform="translate(0 -95.427)" fill="#431e25"/>
      </g>
      <rect id="Rectangle_2" data-name="Rectangle 2" width="50.434" height="50.434" transform="translate(50.434 0)" fill="#d4b500"/>
      <rect id="Rectangle_3" data-name="Rectangle 3" width="50.434" height="50.434" transform="translate(50.434 50.434)" fill="#12a4a0"/>
      <path id="Path_2" data-name="Path 2" d="M134.832,45h-6.215V37.321h4.593c4.207,0,5.983,2.046,5.983,4.13S137.457,45,134.832,45M133.52,26.243c2.432,0,4.4,1.274,4.4,3.59,0,2.007-1.583,3.976-5.6,3.976h-3.706V26.243Zm4.786,8.994a5.982,5.982,0,0,0,4.709-5.906c0-4.478-3.9-7.18-9.264-7.18h-8.608a1.466,1.466,0,0,0-1.621,1.621V47.549a1.466,1.466,0,0,0,1.621,1.621h9.8c5.6,0,9.341-2.934,9.341-7.411a6.466,6.466,0,0,0-5.983-6.523" transform="translate(-58.24 -10.444)" fill="#fff"/>
      <path id="Path_3" data-name="Path 3" d="M30.879,35.028V26.035h5.906c2.548,0,4.207,1.892,4.207,4.516,0,2.586-1.621,4.478-4.207,4.478ZM43.965,49.194a8.033,8.033,0,0,0,4.246-1.119c.849-.5.926-1.274.5-2.2l-.27-.541c-.463-.926-1-1.081-1.969-.694a3.771,3.771,0,0,1-1.852.386c-2.625,0-4.285-3.551-4.555-6.408,3.9-.887,6.138-4.091,6.138-8.106,0-4.748-3.088-8.762-8.608-8.762H27.405a1.465,1.465,0,0,0-1.621,1.621V47.148a1.466,1.466,0,0,0,1.621,1.621h1.853a1.465,1.465,0,0,0,1.621-1.621v-8.26h4.478c.27,3.126,2.046,10.306,8.608,10.306" transform="translate(-12.157 -10.255)" fill="#fff"/>
      <path id="Path_4" data-name="Path 4" d="M40.1,144.645a13.951,13.951,0,0,0,8.3-2.509c.733-.541.772-1.235.193-2.123l-.618-.888c-.579-.888-1.312-.965-2.277-.424a11.638,11.638,0,0,1-5.6,1.467,9.457,9.457,0,1,1,0-18.914,11.632,11.632,0,0,1,5.6,1.467c.965.54,1.7.463,2.277-.424l.618-.888a1.5,1.5,0,0,0-.386-2.277,14,14,0,0,0-8.106-2.354c-9.148,0-14.706,6.407-14.706,13.934s5.558,13.935,14.706,13.935" transform="translate(-11.971 -55.059)" fill="#fff"/>
      <path id="Path_5" data-name="Path 5" d="M122.889,144.6h19.879a1.465,1.465,0,0,0,1.621-1.621v-1a1.494,1.494,0,0,0-1.621-1.66H127.946l14.822-18.374a2.835,2.835,0,0,0,.695-2.007V119.2a1.466,1.466,0,0,0-1.621-1.621H123.97a1.465,1.465,0,0,0-1.621,1.621v1a1.493,1.493,0,0,0,1.621,1.66h12.661L122,140.236a2.762,2.762,0,0,0-.733,2.007v.734a1.465,1.465,0,0,0,1.621,1.621" transform="translate(-57.177 -55.437)" fill="#fff"/>
      <path id="Path_6" data-name="Path 6" d="M172.319,112.5a.562.562,0,0,1-.119.383.412.412,0,0,1-.325.136h-.757v-1.037h.741a.459.459,0,0,1,.325.127.514.514,0,0,1,.136.391m.963,2.412-.848-1.366a.965.965,0,0,0,.477-.412,1.2,1.2,0,0,0,.181-.634,1.158,1.158,0,0,0-.087-.437,1.348,1.348,0,0,0-.239-.387,1.193,1.193,0,0,0-.366-.28,1.015,1.015,0,0,0-.461-.107h-1.605v3.622h.782v-1.218h.527l.757,1.218Zm1.045-1.786a2.558,2.558,0,0,1-.206,1.033,2.433,2.433,0,0,1-.563.811,2.584,2.584,0,0,1-.844.527,2.852,2.852,0,0,1-1.045.189,2.761,2.761,0,0,1-1.058-.2,2.507,2.507,0,0,1-.831-.547,2.553,2.553,0,0,1-.548-.819,2.584,2.584,0,0,1-.2-1.013,2.5,2.5,0,0,1,1.576-2.354,2.761,2.761,0,0,1,1.058-.2,2.792,2.792,0,0,1,1.062.2,2.577,2.577,0,0,1,.84.543,2.513,2.513,0,0,1,.555.815,2.539,2.539,0,0,1,.2,1.012m.226,1.169a3.09,3.09,0,0,0,0-2.362,2.8,2.8,0,0,0-.654-.938,3.087,3.087,0,0,0-.992-.622,3.494,3.494,0,0,0-2.473,0,3.048,3.048,0,0,0-.984.622,2.776,2.776,0,0,0-.646.938,3.143,3.143,0,0,0,0,2.362,2.82,2.82,0,0,0,.646.942,3.014,3.014,0,0,0,.984.626,3.494,3.494,0,0,0,2.473,0,3.052,3.052,0,0,0,.992-.626,2.841,2.841,0,0,0,.654-.942" transform="translate(-79.481 -51.933)" fill="#fff"/>
      <path id="Path_7" data-name="Path 7" d="M326.337,173.768a2.867,2.867,0,0,1,2.862-1.921,2.564,2.564,0,0,1,2.685,1.921Zm3.076,5.814a5.175,5.175,0,0,0,3.343-1.1.634.634,0,0,0,.125-1.013l-.125-.143a.647.647,0,0,0-.907-.089,4.168,4.168,0,0,1-2.418.747c-1.938,0-3.307-1.209-3.254-2.862h6.9c.427,0,.675-.231.622-.658a4.319,4.319,0,0,0-4.534-4.178,4.656,4.656,0,0,0-4.8,4.676c0,2.543,1.921,4.623,5.05,4.623m-14.367-.2h7.575a.611.611,0,0,0,.658-.64v-.178a.594.594,0,0,0-.658-.64h-5.637l5.6-5.992a1.084,1.084,0,0,0,.3-.782v-.035a.581.581,0,0,0-.64-.64h-6.81a.594.594,0,0,0-.657.64v.178a.6.6,0,0,0,.657.64h4.89l-5.6,5.975a1.071,1.071,0,0,0-.32.8v.035a.581.581,0,0,0,.64.64m-7.308.2a2.894,2.894,0,0,0,2.97-1.938v1.1a.581.581,0,0,0,.64.64h.533a.594.594,0,0,0,.658-.64v-7.628a.594.594,0,0,0-.658-.64h-.533a.581.581,0,0,0-.64.64v3.538c0,2.685-1.849,3.325-2.774,3.325-.942,0-1.76-.675-1.76-2.489v-4.374a.594.594,0,0,0-.657-.64h-.534a.581.581,0,0,0-.64.64v4.392c0,2.792,1.423,4.072,3.4,4.072m-12.571-5.814a2.867,2.867,0,0,1,2.862-1.921,2.563,2.563,0,0,1,2.685,1.921Zm3.076,5.814a5.175,5.175,0,0,0,3.343-1.1.633.633,0,0,0,.124-1.013l-.124-.143a.647.647,0,0,0-.907-.089,4.17,4.17,0,0,1-2.418.747c-1.939,0-3.307-1.209-3.254-2.862h6.9c.427,0,.675-.231.622-.658a4.319,4.319,0,0,0-4.534-4.178,4.656,4.656,0,0,0-4.8,4.676c0,2.543,1.921,4.623,5.05,4.623m-7.183,0a3.286,3.286,0,0,0,1.387-.284c.444-.214.533-.516.444-.729l-.284-.569c-.125-.214-.267-.249-.516-.16a2.071,2.071,0,0,1-.8.16c-.782,0-1.031-.444-1.547-1.174l-1.476-2.258,2.738-3.307c.356-.427.2-.782-.374-.782h-.675a.885.885,0,0,0-.782.373l-2.721,3.361v-7.041a.581.581,0,0,0-.64-.64h-.533a.594.594,0,0,0-.658.64v11.575a.594.594,0,0,0,.658.64h.533a.581.581,0,0,0,.64-.64v-3.912l1.742,2.827c.551.8,1.156,1.92,2.863,1.92m-13.851-1.6a3.068,3.068,0,0,1,0-6.116,3.06,3.06,0,0,1,0,6.116m.071,5.583c2.472,0,4.694-1.3,4.694-4.321v-8.126a.594.594,0,0,0-.658-.64H280.8a.589.589,0,0,0-.658.622v.782a3.678,3.678,0,0,0-3.183-1.6,4.656,4.656,0,0,0,0,9.3,3.679,3.679,0,0,0,3.183-1.6v1.138a2.64,2.64,0,0,1-2.88,2.863,4.719,4.719,0,0,1-2.543-.693c-.374-.232-.676-.2-.872.214l-.142.249a.631.631,0,0,0,.2.889,5.838,5.838,0,0,0,3.378.924m-9.851-4.178h.534a.581.581,0,0,0,.64-.64V175.99c0-3.645,1.6-3.965,2.24-3.965a2.179,2.179,0,0,1,.48.053c.3.071.48-.107.48-.551v-.516c0-.356-.053-.658-.427-.711l-.391-.017a2.507,2.507,0,0,0-2.383,2.187v-1.351a.581.581,0,0,0-.64-.64h-.534a.594.594,0,0,0-.657.64v7.628a.594.594,0,0,0,.657.64m-7.4-1.4a3.053,3.053,0,1,1,2.9-3.04,2.963,2.963,0,0,1-2.9,3.04m0,1.6a4.65,4.65,0,1,0-4.694-4.659,4.69,4.69,0,0,0,4.694,4.659m-14.011-.2H253.6a.611.611,0,0,0,.658-.64v-.178a.594.594,0,0,0-.658-.64h-5.637l5.6-5.992a1.084,1.084,0,0,0,.3-.782v-.035a.581.581,0,0,0-.64-.64h-6.81a.594.594,0,0,0-.658.64v.178a.6.6,0,0,0,.658.64h4.89l-5.6,5.975a1.072,1.072,0,0,0-.32.8v.035a.581.581,0,0,0,.64.64" transform="translate(-115.696 -78.518)" fill="#003c35"/>
      <path id="Path_8" data-name="Path 8" d="M309.962,136.955a2.867,2.867,0,0,1,2.862-1.921,2.563,2.563,0,0,1,2.685,1.921Zm3.076,5.814a5.175,5.175,0,0,0,3.343-1.1.634.634,0,0,0,.124-1.014l-.124-.142a.647.647,0,0,0-.907-.089,4.17,4.17,0,0,1-2.418.747c-1.939,0-3.307-1.209-3.254-2.863h6.9c.426,0,.675-.231.622-.657a4.32,4.32,0,0,0-4.534-4.179,4.656,4.656,0,0,0-4.8,4.677c0,2.543,1.921,4.623,5.05,4.623m-10.1,3.983c1.4,0,2.987-.6,2.987-3.467v-8.979a.581.581,0,0,0-.64-.64H304.7a.594.594,0,0,0-.658.64v9.282c0,.978-.391,1.6-1.191,1.6-.569,0-1.014-.3-1.014-.747v-.124a.333.333,0,0,0-.374-.32h-.871a.306.306,0,0,0-.32.2,1.44,1.44,0,0,0-.035.3c0,1.3.96,2.258,2.7,2.258m2.062-14.7a1.227,1.227,0,1,0-1.227-1.209A1.192,1.192,0,0,0,305,132.047m-5.529,10.526h.533a.581.581,0,0,0,.64-.64v-7.628a.581.581,0,0,0-.64-.64h-.533a.594.594,0,0,0-.658.64v7.628a.594.594,0,0,0,.658.64m.249-10.526a1.227,1.227,0,1,0-1.227-1.209,1.193,1.193,0,0,0,1.227,1.209m-6.881,10.526h.533a.581.581,0,0,0,.64-.64v-2.756c0-3.645,1.6-3.965,2.24-3.965a2.22,2.22,0,0,1,.48.053c.3.071.48-.106.48-.551V134.2c0-.356-.053-.658-.427-.711l-.391-.018a2.507,2.507,0,0,0-2.383,2.187v-1.351a.581.581,0,0,0-.64-.64h-.533a.594.594,0,0,0-.658.64v7.628a.594.594,0,0,0,.658.64m-7.326,0h.924a.77.77,0,0,0,.765-.516l2.969-7.663c.16-.444-.017-.729-.5-.729h-.587a.727.727,0,0,0-.747.515l-2.365,6.383-2.365-6.383a.726.726,0,0,0-.747-.515h-.587c-.48,0-.658.284-.5.729l2.969,7.663a.77.77,0,0,0,.765.516m-17.319,0h.534a.581.581,0,0,0,.64-.64v-3.538c0-2.7,1.849-3.325,2.774-3.325.942,0,1.778.658,1.778,2.489v4.374a.581.581,0,0,0,.641.64h.533a.594.594,0,0,0,.658-.64v-4.392c0-2.792-1.44-4.072-3.414-4.072a2.893,2.893,0,0,0-2.969,1.939v-1.1a.581.581,0,0,0-.64-.64H268.2a.594.594,0,0,0-.658.64v7.628a.594.594,0,0,0,.658.64m-9.957-5.619a2.868,2.868,0,0,1,2.863-1.921,2.563,2.563,0,0,1,2.685,1.921Zm3.076,5.814a5.176,5.176,0,0,0,3.343-1.1.634.634,0,0,0,.124-1.014l-.124-.142a.647.647,0,0,0-.907-.089,4.17,4.17,0,0,1-2.418.747c-1.938,0-3.307-1.209-3.253-2.863h6.9c.427,0,.676-.231.623-.657a4.32,4.32,0,0,0-4.534-4.179,4.656,4.656,0,0,0-4.8,4.677c0,2.543,1.92,4.623,5.05,4.623m-13.691-5.814a2.867,2.867,0,0,1,2.862-1.921,2.563,2.563,0,0,1,2.685,1.921Zm3.076,5.814a5.175,5.175,0,0,0,3.343-1.1.634.634,0,0,0,.125-1.014l-.125-.142a.647.647,0,0,0-.907-.089,4.17,4.17,0,0,1-2.418.747c-1.938,0-3.307-1.209-3.254-2.863h6.9c.427,0,.675-.231.622-.657a4.32,4.32,0,0,0-4.534-4.179,4.656,4.656,0,0,0-4.8,4.677c0,2.543,1.921,4.623,5.05,4.623" transform="translate(-115.822 -61.102)" fill="#003c35"/>
    </g>
  </g>
</svg>
